<svg xmlns="http://www.w3.org/2000/svg" width="200.113" height="149.906" viewBox="0 0 200.113 149.906"><defs><style>.a{fill:#ef420c;}.b{fill:#fff;}</style></defs><g transform="translate(-15.064 -28.005)"><path class="a" d="M37.087,80.2h.31l40.055.786a3.952,3.952,0,0,1,2.276.807,4.673,4.673,0,0,1,1.386,1.945,4.923,4.923,0,0,1,.29,2.441,4.519,4.519,0,0,1-1.055,2.379L44.081,131.345a4.7,4.7,0,0,1-.641.641,3.973,3.973,0,0,1-.724.476,4.714,4.714,0,0,1-.745.31,3.156,3.156,0,0,1-.766.166,4.457,4.457,0,0,1-1.655-.124,4.085,4.085,0,0,1-1.49-.766,4.223,4.223,0,0,1-1.1-1.324,4.387,4.387,0,0,1-.517-1.841L32.929,85.228a4.907,4.907,0,0,1,1.055-3.476,4.379,4.379,0,0,1,1.366-1.1A4.605,4.605,0,0,1,37.087,80.2Z" transform="translate(13.543 44.945)"/><path class="a" d="M202.846,33.25a9.764,9.764,0,0,1,4.323.952,11.662,11.662,0,0,1,3.617,2.731,13.661,13.661,0,0,1,2.515,4.138,15.35,15.35,0,0,1,1.1,5.007l3.554,72.187a15.108,15.108,0,0,1-.582,5.007,14.209,14.209,0,0,1-2.079,4.345,12.231,12.231,0,0,1-3.243,3.207,10.069,10.069,0,0,1-4.157,1.634l-164.641,25.2a15.993,15.993,0,0,1-6.423-.248,15.219,15.219,0,0,1-5.529-2.586,14.384,14.384,0,0,1-3.97-4.469,13.851,13.851,0,0,1-1.829-5.979L17.919,53.2a15.189,15.189,0,0,1,4.074-11.71,16.177,16.177,0,0,1,5.113-3.621,16.855,16.855,0,0,1,6.443-1.407Z" transform="translate(-2.8 -5.244)"/><g transform="translate(40.298 42.025)"><path class="b" d="M106.682,70.244a5.817,5.817,0,0,1,1.469,0,1.876,1.876,0,0,1,.972.476,2.4,2.4,0,0,1,.559,1.035,7.445,7.445,0,0,1,.248,1.655v1.572a11.6,11.6,0,0,1,0,1.7,2.672,2.672,0,0,1-.455,1.159,2.4,2.4,0,0,1-.91.724,5.733,5.733,0,0,1-1.448.372l-1.924.248a4.255,4.255,0,0,1-1.448,0,1.7,1.7,0,0,1-.972-.455,2.44,2.44,0,0,1-.579-1.034,7.815,7.815,0,0,1-.248-1.676V74.423a7.938,7.938,0,0,1,0-1.717,2.671,2.671,0,0,1,.455-1.159,2.57,2.57,0,0,1,.91-.724,4.947,4.947,0,0,1,1.448-.352Z" transform="translate(47.653 -8.17)"/><path class="b" d="M103.062,79.867,101.386,60.15a2.641,2.641,0,0,1,0-.807.974.974,0,0,1,.228-.538,1.04,1.04,0,0,1,.455-.331,2.149,2.149,0,0,1,.724-.145l4.407-.393a2.127,2.127,0,0,1,.724,0,1.094,1.094,0,0,1,.5.228,1.167,1.167,0,0,1,.269.5,2.635,2.635,0,0,1,0,.807l.331,19.655v.828a1.821,1.821,0,0,1-.207.559,1.089,1.089,0,0,1-.414.331,1.945,1.945,0,0,1-.683.166l-3.166.393a3.99,3.99,0,0,1-.7,0,.82.82,0,0,1-.476-.248,1.242,1.242,0,0,1-.269-.517A3.172,3.172,0,0,1,103.062,79.867Z" transform="translate(47.073 -21.31)"/><path class="b" d="M109.692,42.856a1.093,1.093,0,0,1,.517,0,.559.559,0,0,1,.352.207.728.728,0,0,1,.207.393,2.9,2.9,0,0,1,0,.6l.145,2.752a3.116,3.116,0,0,1,0,.621.8.8,0,0,1-.166.434,1,1,0,0,1-.331.248,2.163,2.163,0,0,1-.517,0l-6.931.372.145,2.752,5.545-.31a1.181,1.181,0,0,1,.538,0,.652.652,0,0,1,.352.186.728.728,0,0,1,.207.393,1.921,1.921,0,0,1,.1.6L110,55.042a3.113,3.113,0,0,1,0,.621,1.026,1.026,0,0,1-.165.414,1,1,0,0,1-.331.248,1.555,1.555,0,0,1-.538.1l-5.524.352.145,2.959,7.159-.476a1.093,1.093,0,0,1,.517,0,1.051,1.051,0,0,1,.331.186.728.728,0,0,1,.207.393,2.9,2.9,0,0,1,0,.6l.145,2.772a3.109,3.109,0,0,1,0,.621.841.841,0,0,1-.166.393.528.528,0,0,1-.31.248,1.093,1.093,0,0,1-.517,0l-11.235.869a1.181,1.181,0,0,1-.538,0,.642.642,0,0,1-.372-.186.728.728,0,0,1-.207-.393,2.909,2.909,0,0,1,0-.6L97.588,44.739a3.113,3.113,0,0,1,0-.621,1.5,1.5,0,0,1,.186-.414,1,1,0,0,1,.331-.248,2.337,2.337,0,0,1,.538,0Z" transform="translate(43.03 -37.43)"/><path class="b" d="M93.969,45.209a3.987,3.987,0,0,1-.993,0,1.222,1.222,0,0,1-.662-.352,1.548,1.548,0,0,1-.372-.7A5.4,5.4,0,0,1,91.776,43v-.248a5.43,5.43,0,0,1,0-1.159,1.932,1.932,0,0,1,.29-.745,1.146,1.146,0,0,1,.621-.414,3.225,3.225,0,0,1,.993-.166h.166a2.783,2.783,0,0,1,1.014,0,1.228,1.228,0,0,1,.641.352,1.619,1.619,0,0,1,.372.724,5.4,5.4,0,0,1,.165,1.159v.248a5.229,5.229,0,0,1,0,1.138,1.447,1.447,0,0,1-.29.745,1.43,1.43,0,0,1-.621.414,3.81,3.81,0,0,1-.972.145Z" transform="translate(36.801 -40.217)"/><path class="b" d="M109.725,59.046a2.636,2.636,0,0,1,.807,0,.894.894,0,0,1,.538.269,1.064,1.064,0,0,1,.31.579,6.434,6.434,0,0,1,.124.91l.145,2.752v1.138a4.18,4.18,0,0,1-.145.476,3.3,3.3,0,0,1-.207.476L101.139,84.908l10.179-1.241a4.98,4.98,0,0,1,.786,0,.9.9,0,0,1,.538.269,1.152,1.152,0,0,1,.31.559,6.426,6.426,0,0,1,.124.91l.228,4.138a3.352,3.352,0,0,1,0,.91,1.6,1.6,0,0,1-.228.621,1.312,1.312,0,0,1-.5.393,2.6,2.6,0,0,1-.786.207L92.553,94.26a2.776,2.776,0,0,1-.828,0,1.365,1.365,0,0,1-.559-.248,1.624,1.624,0,0,1-.331-.579,3.349,3.349,0,0,1-.145-.91l-.166-2.855a2.709,2.709,0,0,1,0-.579,2.337,2.337,0,0,1,0-.538,3.185,3.185,0,0,1,.145-.476A3.36,3.36,0,0,1,90.9,87.6L101.242,68,91.187,69.018a2.775,2.775,0,0,1-.828,0,1.119,1.119,0,0,1-.559-.29,1.358,1.358,0,0,1-.352-.6,3.651,3.651,0,0,1-.145-.952l-.248-4.262a3.666,3.666,0,0,1,0-.952,1.468,1.468,0,0,1,.269-.641,1.379,1.379,0,0,1,.517-.393,3.7,3.7,0,0,1,.828-.186Z" transform="translate(33.893 -20.123)"/><path class="b" d="M104.168,59.871a1.182,1.182,0,0,1,.538,0,1.152,1.152,0,0,1,.352.186.729.729,0,0,1,.207.393,3.116,3.116,0,0,1,0,.621l.145,2.834a1.57,1.57,0,0,1,0,.621,1.026,1.026,0,0,1-.166.414.571.571,0,0,1-.331.248,2.268,2.268,0,0,1-.538.124l-12.993.993a2.521,2.521,0,0,1-.559,0,.642.642,0,0,1-.372-.186.744.744,0,0,1-.228-.414,3.109,3.109,0,0,1,0-.621l-.1-1.924a1.252,1.252,0,0,1,0-.393v-.352l.124-.31a2.088,2.088,0,0,1,.145-.31l6.993-12.828-6.786.352a1.273,1.273,0,0,1-.559,0,.828.828,0,0,1-.372-.207,1.167,1.167,0,0,1-.228-.414,2.33,2.33,0,0,1-.1-.662l-.165-2.855a3.321,3.321,0,0,1,0-.641,1.5,1.5,0,0,1,.186-.414.617.617,0,0,1,.352-.248,2.522,2.522,0,0,1,.559,0l12.786-.6a2.337,2.337,0,0,1,.538,0,.672.672,0,0,1,.372.207.788.788,0,0,1,.207.414,2.91,2.91,0,0,1,0,.6l.1,1.883v1.076l-.124.31-6.89,12.683Z" transform="translate(34.029 -36.962)"/><path class="b" d="M88.016,51.866a2.127,2.127,0,0,1,.724,0,.938.938,0,0,1,.434.31.825.825,0,0,1,.145.5,2.01,2.01,0,0,1,0,.7l-1.7,7.179a1.591,1.591,0,0,1-.186.579,1.08,1.08,0,0,1-.29.393,1.028,1.028,0,0,1-.393.269l-.579.1-1.614.124a1.528,1.528,0,0,1-.434,0,.472.472,0,0,1-.248-.124.551.551,0,0,1-.29-.145,1.674,1.674,0,0,1,0-.455l.372-7.428a4.987,4.987,0,0,1,0-.786,1.2,1.2,0,0,1,.248-.517.925.925,0,0,1,.414-.331,3.2,3.2,0,0,1,.641-.124Z" transform="translate(28.064 -27.799)"/><path class="b" d="M88.237,60.314a19.068,19.068,0,0,1,4.345,0,11.719,11.719,0,0,1,3.435.91,9.151,9.151,0,0,1,2.648,1.862,11.382,11.382,0,0,1,2.069,2.793,4.6,4.6,0,0,1,.331.89,1.432,1.432,0,0,1-.434,1.345,3.389,3.389,0,0,1-.766.538l-4.138,2.5-.29.166-.248.124h-.434a1.123,1.123,0,0,1-.372,0,.7.7,0,0,1-.331-.207,1.506,1.506,0,0,1-.352-.372c-.124-.186-.248-.372-.352-.559a4.661,4.661,0,0,0-.828-1.076,3.135,3.135,0,0,0-1.055-.662,4.206,4.206,0,0,0-1.241-.31,5.494,5.494,0,0,0-1.428,0,11.859,11.859,0,0,0-1.9.352,4.111,4.111,0,0,0-1.262.579,2.323,2.323,0,0,0-.683.869,2.352,2.352,0,0,0-.166,1.138,1.846,1.846,0,0,0,.538,1.241,3.087,3.087,0,0,0,1.283.683,9.725,9.725,0,0,0,1.862.31h2.214a32.231,32.231,0,0,1,3.972.372,11.717,11.717,0,0,1,3.786,1.283,7.548,7.548,0,0,1,2.9,2.917,11.788,11.788,0,0,1,1.386,5.276A11.218,11.218,0,0,1,102,88.018a10.3,10.3,0,0,1-2.545,3.745,13.851,13.851,0,0,1-4.138,2.648,21.2,21.2,0,0,1-5.276,1.428,20.539,20.539,0,0,1-4.51.145,12.19,12.19,0,0,1-3.807-.91A9.633,9.633,0,0,1,78.74,93a9.49,9.49,0,0,1-2.069-3.1,2.419,2.419,0,0,1-.269-.931,1.513,1.513,0,0,1,0-.745,1.473,1.473,0,0,1,.434-.621,4.075,4.075,0,0,1,.786-.538L81.761,85l.31-.145.269-.124h.517a.776.776,0,0,1,.434,0,1.373,1.373,0,0,1,.393.186,1.592,1.592,0,0,1,.372.372,2.628,2.628,0,0,1,.372.559,4.051,4.051,0,0,0,.828,1.035,4.2,4.2,0,0,0,1.138.662,5.8,5.8,0,0,0,1.448.29,11.613,11.613,0,0,0,1.7,0,15.412,15.412,0,0,0,1.945-.393,6.224,6.224,0,0,0,1.428-.621,2.878,2.878,0,0,0,.848-.952,2.438,2.438,0,0,0,.228-1.324,1.687,1.687,0,0,0-.455-1.138,2.566,2.566,0,0,0-1.1-.641,7.574,7.574,0,0,0-1.655-.331,12.413,12.413,0,0,1-2.069-.124,22.161,22.161,0,0,1-4.138-.269,13.708,13.708,0,0,1-4.138-1.159,7.882,7.882,0,0,1-3.31-2.9,11.913,11.913,0,0,1-1.572-5.545,11.338,11.338,0,0,1,.6-4.552,9.7,9.7,0,0,1,2.359-3.7,12.114,12.114,0,0,1,4.014-2.648A18.666,18.666,0,0,1,88.237,60.314Z" transform="translate(19.464 -18.867)"/><path class="b" d="M88.576,43.868a2.91,2.91,0,0,1,.6,0,.938.938,0,0,1,.393.228.859.859,0,0,1,.248.414,3.456,3.456,0,0,1,.1.641l.166,2.917a1.783,1.783,0,0,1,0,.662,1.756,1.756,0,0,1-.186.455.744.744,0,0,1-.372.248,1.8,1.8,0,0,1-.579.1l-7.821.434.186,2.917,6.207-.372a3.114,3.114,0,0,1,.621,0,.728.728,0,0,1,.393.207,1.691,1.691,0,0,1,.248.414,2.307,2.307,0,0,1,.1.641l.165,2.938a1.78,1.78,0,0,1,0,.662.69.69,0,0,1-.186.434.7.7,0,0,1-.372.269,2.909,2.909,0,0,1-.6,0l-6.207.414.186,3.124,8.048-.538a1.367,1.367,0,0,1,.579,0,.8.8,0,0,1,.621.6c.041.207.083.434.1.641l.166,2.959a1.672,1.672,0,0,1,0,.641.823.823,0,0,1-.186.434.892.892,0,0,1-.352.269l-.579.1L77.611,67.7a1.466,1.466,0,0,1-.6,0A.72.72,0,0,1,76.6,67.5a.8.8,0,0,1-.248-.393,3.544,3.544,0,0,1,0-.662l-1.283-20.69a1.784,1.784,0,0,1,0-.662.824.824,0,0,1,.186-.434,1.028,1.028,0,0,1,.393-.269,2.913,2.913,0,0,1,.6,0Z" transform="translate(18.938 -36.332)"/><path class="b" d="M75.224,44.278a2.71,2.71,0,0,1,.579,0,.9.9,0,0,1,.393.207,1.5,1.5,0,0,1,.228.393c.041.207.083.414.1.621l1.3,20.938a1.568,1.568,0,0,1,0,.621.824.824,0,0,1-.186.434,1.081,1.081,0,0,1-.352.248,2.52,2.52,0,0,1-.559,0l-3.621.269a1.465,1.465,0,0,1-.6,0,.7.7,0,0,1-.393-.186,1.5,1.5,0,0,1-.228-.393,3.113,3.113,0,0,1,0-.621L70.548,45.726a3.322,3.322,0,0,1,0-.641,1.494,1.494,0,0,1,.186-.414.744.744,0,0,1,.372-.248,1.794,1.794,0,0,1,.579-.1Z" transform="translate(14.125 -35.893)"/><path class="b" d="M84.09,61.406a3.5,3.5,0,0,1,.931,0,1.753,1.753,0,0,1,.621.31,1.68,1.68,0,0,1,.393.6,3.83,3.83,0,0,1,.166.972l.269,4.428a4.156,4.156,0,0,1,0,1.014,1.5,1.5,0,0,1-.29.7,1.427,1.427,0,0,1-.579.414,3.421,3.421,0,0,1-.91.207L72.442,71.3l.29,4.448,9.807-1.055a2.352,2.352,0,0,1,.931,0,1.5,1.5,0,0,1,.641.29,1.4,1.4,0,0,1,.372.6,3.668,3.668,0,0,1,.166.952l.269,4.448a4.156,4.156,0,0,1,0,1.014,1.536,1.536,0,0,1-.31.7,1.345,1.345,0,0,1-.579.435,3.422,3.422,0,0,1-.91.207L73.331,84.5l.31,4.779,12.579-1.552a3.356,3.356,0,0,1,.91,0,1.066,1.066,0,0,1,.6.269,1.088,1.088,0,0,1,.372.579,3.829,3.829,0,0,1,.166.972l.269,4.448a3.822,3.822,0,0,1,0,.972,1.4,1.4,0,0,1-.269.683,1.345,1.345,0,0,1-.579.434,4.494,4.494,0,0,1-.869.228L66.938,98.979a3.822,3.822,0,0,1-.972,0,1.256,1.256,0,0,1-.662-.269,1.234,1.234,0,0,1-.393-.621,3.829,3.829,0,0,1-.166-.972L62.676,65.461a4.159,4.159,0,0,1,0-1.014,1.537,1.537,0,0,1,.31-.7,1.562,1.562,0,0,1,.621-.414,3.724,3.724,0,0,1,.952-.207Z" transform="translate(5.693 -17.601)"/><path class="b" d="M77.5,44.488a3.113,3.113,0,0,1,.621,0,1.014,1.014,0,0,1,.414.228.832.832,0,0,1,.248.434,3.409,3.409,0,0,1,.124.662l1.345,21a1.78,1.78,0,0,1,0,.662.918.918,0,0,1-.207.455.7.7,0,0,1-.372.269,3.3,3.3,0,0,1-.621.124l-3.517.269h-.807a.868.868,0,0,1-.29-.186,1.668,1.668,0,0,1-.248-.29L68.749,60.44c-.393-.579-.724-1.1-1.014-1.614s-.559-1.014-.807-1.531-.476-1.076-.7-1.7-.5-1.262-.766-2.069h-.248c.228.807.434,1.531.6,2.214s.331,1.3.476,2.069.228,1.324.331,2.069.166,1.552.248,2.5l.352,5.524a1.892,1.892,0,0,1,0,.683.919.919,0,0,1-.207.455,1.027,1.027,0,0,1-.393.269,1.792,1.792,0,0,1-.662.124l-3.269.248a1.672,1.672,0,0,1-.641,0,.918.918,0,0,1-.455-.207.962.962,0,0,1-.269-.434,1.781,1.781,0,0,1,0-.662L59.708,46.867a3.768,3.768,0,0,1,0-.683,1.293,1.293,0,0,1,.207-.455.962.962,0,0,1,.434-.269,3.2,3.2,0,0,1,.641-.124l3.848-.166h.848a1.47,1.47,0,0,1,.29.207,1.323,1.323,0,0,1,.269.31l5.793,8.441c.393.579.7,1.076.972,1.552a10.628,10.628,0,0,1,.7,1.366l.641,1.428c.207.517.455,1.055.745,1.7h.269c-.31-.869-.579-1.614-.807-2.3s-.414-1.3-.559-1.924c-.166-.641-.29-1.283-.393-1.945,0-.7-.166-1.448-.228-2.3l-.352-5.586a1.78,1.78,0,0,1,0-.662,1.757,1.757,0,0,1,.186-.455,1.028,1.028,0,0,1,.393-.269,3.323,3.323,0,0,1,.641,0Z" transform="translate(2.537 -35.669)"/><path class="b" d="M63.161,62.646a3.507,3.507,0,0,1,.931,0,1.5,1.5,0,0,1,.641.29,1.633,1.633,0,0,1,.372.6,3.811,3.811,0,0,1,.145.972l2.193,32.048a3.825,3.825,0,0,1,0,.972,1.45,1.45,0,0,1-.269.662,1.709,1.709,0,0,1-.579.435,3.423,3.423,0,0,1-.91.207l-5.772.786a3.666,3.666,0,0,1-.952,0,1.2,1.2,0,0,1-.621-.269,1.088,1.088,0,0,1-.372-.579,3.724,3.724,0,0,1-.207-.952L55.506,65.4a3.989,3.989,0,0,1,0-.993,1.477,1.477,0,0,1,.29-.662,1.494,1.494,0,0,1,.6-.414,3.719,3.719,0,0,1,.931-.186Z" transform="translate(-1.971 -16.275)"/><path class="b" d="M65.522,44.976a1.672,1.672,0,0,1,.641,0,.884.884,0,0,1,.435.228.921.921,0,0,1,.248.434,3.947,3.947,0,0,1,.124.683l.993,14.586a11.9,11.9,0,0,1-.31,3.828,7.657,7.657,0,0,1-4.262,5.028,11.236,11.236,0,0,1-3.931.91,10.821,10.821,0,0,1-3.166-.145,8.042,8.042,0,0,1-4.655-2.669,11.038,11.038,0,0,1-1.448-2.421,2.464,2.464,0,0,1-.207-.662.742.742,0,0,1,0-.517.925.925,0,0,1,.331-.414,3.445,3.445,0,0,1,.579-.372l3.455-1.531.207-.1h.91a.9.9,0,0,1,.31.166,1.323,1.323,0,0,1,.269.31l.248.435a7.927,7.927,0,0,0,.517.91,2.943,2.943,0,0,0,.621.621,2.187,2.187,0,0,0,.724.372,3.353,3.353,0,0,0,.91,0,3.145,3.145,0,0,0,1.076-.248,1.907,1.907,0,0,0,.724-.621,2.732,2.732,0,0,0,.393-.952,7.3,7.3,0,0,0,0-1.345L60.225,46.755a3.765,3.765,0,0,1,0-.683.919.919,0,0,1,.207-.455,1,1,0,0,1,.414-.29,1.78,1.78,0,0,1,.662,0Z" transform="translate(-7.891 -35.164)"/><path class="b" d="M62.5,68.658a1.659,1.659,0,0,1,.186.621.562.562,0,0,1-.352.766,3.3,3.3,0,0,1-.621.124l-3.724.29a10.446,10.446,0,0,1-1.138,0,2.474,2.474,0,0,1-.766-.207,1.609,1.609,0,0,1-.5-.414,2.045,2.045,0,0,1-.31-.683l-.993-2.483-7.635.538-.6,2.628a3.054,3.054,0,0,1-.269.724,1.609,1.609,0,0,1-.414.5,1.519,1.519,0,0,1-.724.31,4.844,4.844,0,0,1-1.1.166l-3.766.29a1.892,1.892,0,0,1-.683,0,.572.572,0,0,1-.393-.248.886.886,0,0,1-.124-.455,1.781,1.781,0,0,1,0-.662L45.145,47.12a3.629,3.629,0,0,1,.248-.662,1.157,1.157,0,0,1,.848-.621h.683l4.1-.207H51.7a2.158,2.158,0,0,1,.517.166,1.6,1.6,0,0,1,.393.352,1.9,1.9,0,0,1,.331.559ZM47.814,61.5l4.407-.29-1.593-4.138a13.632,13.632,0,0,1-.559-1.779c-.145-.559-.269-1.1-.352-1.552a10.037,10.037,0,0,1-.186-1.138v-.5H49.2V53.74a8.689,8.689,0,0,1-.1,1.572,17.994,17.994,0,0,1-.269,1.8l-.993,4.3" transform="translate(-20.058 -34.432)"/><path class="b" d="M77.7,63.214a2.351,2.351,0,0,1,.931,0,.815.815,0,0,1,.517.352,1.131,1.131,0,0,1,.145.641,3.826,3.826,0,0,1,0,.972L73.479,99.028a3.244,3.244,0,0,1-.269.972,2.344,2.344,0,0,1-.5.621,3.344,3.344,0,0,1-.724.352,3.882,3.882,0,0,1-.972.207l-6,.807a4.323,4.323,0,0,1-1.034,0,2.163,2.163,0,0,1-.807-.166,1.6,1.6,0,0,1-.6-.455,1.923,1.923,0,0,1-.414-.786L58.417,88.621q-.341-1.21-.621-2.421c-.186-.786-.331-1.593-.476-2.379s-.248-1.572-.352-2.338-.186-1.531-.248-2.3h-.434v4.676A12.218,12.218,0,0,1,56.12,86.3c-.166.828-.166,1.7-.29,2.586l-1.883,12.621a3.345,3.345,0,0,1-.352.993,1.788,1.788,0,0,1-.538.641,2.627,2.627,0,0,1-.766.372,5.5,5.5,0,0,1-1.014.207l-6.207.828a8.97,8.97,0,0,1-1.055,0,2.361,2.361,0,0,1-.848-.145,1.736,1.736,0,0,1-.641-.455,2.493,2.493,0,0,1-.414-.848L30.651,69.545a5.2,5.2,0,0,1-.269-.972,1.087,1.087,0,0,1,0-.724.967.967,0,0,1,.5-.455,3,3,0,0,1,1.034-.228l6.848-.621q.621-.031,1.241,0a2.335,2.335,0,0,1,.91.207,1.523,1.523,0,0,1,.641.559,3.03,3.03,0,0,1,.434.993l3.5,13.9c.166.683.331,1.531.5,2.421s.331,1.841.455,2.752.248,1.779.352,2.524.145,1.345.165,1.717h.372V84.545a17.67,17.67,0,0,1,.248-2.524l2.276-14.483a2.834,2.834,0,0,1,.331-1.076,1.847,1.847,0,0,1,.559-.641,2.376,2.376,0,0,1,.848-.352,10.48,10.48,0,0,1,1.117-.186l5.772-.517a9.693,9.693,0,0,1,1.1,0,2.065,2.065,0,0,1,.869.207,1.693,1.693,0,0,1,.662.538,3.271,3.271,0,0,1,.476.972l4.138,13.51c.228.724.414,1.572.6,2.441s.352,1.779.5,2.648.269,1.7.372,2.4.166,1.283.207,1.676h.393V82.29a15.962,15.962,0,0,1,.124-2.5l1.159-13.966a4.482,4.482,0,0,1,.269-1.034,1.734,1.734,0,0,1,.517-.641,2.44,2.44,0,0,1,.828-.352,11.641,11.641,0,0,1,1.179-.186Z" transform="translate(-28.861 -15.684)"/><path class="b" d="M46.4,45.918a4.473,4.473,0,0,1,.745,0,1.128,1.128,0,0,1,.5.248,1,1,0,0,1,.31.455,3.386,3.386,0,0,1,.207.786l.248,3.248a2.376,2.376,0,0,1,0,.765,1.093,1.093,0,0,1-.228.5,1.315,1.315,0,0,1-.455.29,4.072,4.072,0,0,1-.724.124l-9.7.517.331,4.138,7.759-.455a4.481,4.481,0,0,1,.745,0,1.364,1.364,0,0,1,.5.228,1.315,1.315,0,0,1,.29.455,2.149,2.149,0,0,1,.145.724l.248,3.228a2.374,2.374,0,0,1,0,.765.914.914,0,0,1-.228.5.827.827,0,0,1-.455.29,2.131,2.131,0,0,1-.724.124l-7.738.517.559,7.366a2.128,2.128,0,0,1,0,.724.914.914,0,0,1-.228.5.827.827,0,0,1-.455.29,2.814,2.814,0,0,1-.724.145l-4.138.31a2.377,2.377,0,0,1-.766,0,.977.977,0,0,1-.517-.228,1.12,1.12,0,0,1-.31-.455,4.072,4.072,0,0,1-.124-.724l-1.821-23.09a2.128,2.128,0,0,1,0-.724,1.128,1.128,0,0,1,.248-.5.88.88,0,0,1,.476-.29,4.665,4.665,0,0,1,.745-.124Z" transform="translate(-29.615 -34.14)"/></g></g></svg>