<svg xmlns="http://www.w3.org/2000/svg" width="54.641" height="54.641" viewBox="0 0 54.641 54.641"><defs><style>.a,.b{fill:none;}.b{stroke-linecap:round;stroke-linejoin:round;}.c,.d{stroke:none;}.d{fill:#ef420c;}</style></defs><g transform="translate(20) rotate(30)"><rect class="a" width="40" height="40"/><g class="b" transform="translate(5 4)"><path class="c" d="M11.474,6.582a4,4,0,0,1,7.052,0l8.319,15.529A4,4,0,0,1,23.319,28H6.681a4,4,0,0,1-3.526-5.889Z"/><path class="d" d="M 15 8.470609664916992 L 6.680679321289062 24 L 23.31932067871094 24 L 15 8.470609664916992 M 15 4.470603942871094 C 16.3859748840332 4.470603942871094 17.77194976806641 5.174308776855469 18.52592086791992 6.581720352172852 L 26.84523963928223 22.11111068725586 C 28.27273941040039 24.77577972412109 26.34226036071777 28 23.31932067871094 28 L 6.680679321289062 28 C 3.657739639282227 28 1.727260589599609 24.77577972412109 3.154760360717773 22.11111831665039 L 11.47407913208008 6.581720352172852 C 12.22805023193359 5.174308776855469 13.6140251159668 4.470603942871094 15 4.470603942871094 Z"/></g></g></svg>